<svg width="64" height="64" viewBox="0 0 64 64" fill="none" xmlns="http://www.w3.org/2000/svg">
<rect width="64" height="64" rx="32" fill="#6C97EB" fill-opacity="0.15"/>
<g clip-path="url(#clip0_15_39)">
<path fill-rule="evenodd" clip-rule="evenodd" d="M39.7 26.4701C38.32 27.0201 35.4 28.0001 32 28.0001C28.6 28.0001 25.68 27.0301 24.3 26.4701C25.25 24.2001 26 22.0201 26 20.0001C26 17.1501 23.91 12.5801 23.91 12.5801C23.68 12.0801 23.08 11.8601 22.58 12.0901C22.08 12.3201 21.86 12.9201 22.09 13.4201C22.09 13.4201 24 17.4701 24 20.0001C24 22.3801 22.77 24.9901 21.58 27.7301C20.28 30.7301 19 33.8701 19 37.0001C19 45.1801 21.05 51.3201 21.05 51.3201C21.22 51.8401 21.79 52.1301 22.31 51.9501C22.83 51.7801 23.12 51.2101 22.94 50.6901C22.94 50.6901 22.86 50.4501 22.73 50.0101H30.99V51.0101C30.99 51.5601 31.44 52.0101 31.99 52.0101C32.54 52.0101 32.99 51.5601 32.99 51.0101V50.0101H41.25C41.12 50.4601 41.04 50.6901 41.04 50.6901C40.86 51.2101 41.15 51.7801 41.67 51.9501C42.19 52.1301 42.76 51.8401 42.93 51.3201C42.93 51.3201 44.98 45.1901 44.98 37.0001C44.98 33.8701 43.7 30.7301 42.4 27.7301C41.21 24.9901 39.98 22.3801 39.98 20.0001C39.98 17.4701 41.89 13.4201 41.89 13.4201C42.12 12.9201 41.9 12.3301 41.4 12.0901C40.9 11.8601 40.31 12.0801 40.07 12.5801C40.07 12.5801 37.98 17.1501 37.98 20.0001C37.98 22.0201 38.74 24.2001 39.68 26.4701H39.7ZM42.02 32.0701C40.79 32.5601 36.79 34.0001 32 34.0001C27.21 34.0001 23.2 32.5601 21.98 32.0701C21.41 33.7001 21 35.3401 21 37.0001C21 41.6201 21.68 45.5501 22.24 48.0001H31V40.0001C31 39.4501 31.45 39.0001 32 39.0001C32.55 39.0001 33 39.4501 33 40.0001V48.0001H41.76C42.32 45.5501 43 41.6201 43 37.0001C43 35.3501 42.59 33.7001 42.02 32.0701ZM23.51 28.3101L23.42 28.5201C23.18 29.0801 22.93 29.6401 22.7 30.2001C23.74 30.6201 27.49 31.9901 32 31.9901C36.51 31.9901 40.26 30.6201 41.3 30.2001C41.07 29.6301 40.82 29.0701 40.58 28.5201L40.49 28.3101C38.96 28.9201 35.75 30.0001 32 30.0001C28.25 30.0001 25.04 28.9301 23.51 28.3101ZM43.29 26.7101L44.29 27.7101C44.68 28.1001 45.31 28.1001 45.71 27.7101C46.1 27.3201 46.1 26.6901 45.71 26.2901L44.71 25.2901C44.32 24.9001 43.69 24.9001 43.29 25.2901C42.9 25.6801 42.9 26.3101 43.29 26.7101ZM19.29 25.2901L18.29 26.2901C17.9 26.6801 17.9 27.3101 18.29 27.7101C18.68 28.1001 19.31 28.1001 19.71 27.7101L20.71 26.7101C21.1 26.3201 21.1 25.6901 20.71 25.2901C20.32 24.9001 19.69 24.9001 19.29 25.2901ZM31 24.0001V25.0001C31 25.5501 31.45 26.0001 32 26.0001C32.55 26.0001 33 25.5501 33 25.0001V24.0001C33 23.4501 32.55 23.0001 32 23.0001C31.45 23.0001 31 23.4501 31 24.0001ZM52 18.0001C52 17.4501 51.55 17.0001 51 17.0001H48V16.0001C48 15.6201 47.78 15.2701 47.43 15.1001C47.08 14.9301 46.67 14.9801 46.37 15.2201L41.37 19.2201C41.13 19.4101 40.99 19.7001 40.99 20.0001C40.99 20.3001 41.13 20.5901 41.37 20.7801L46.37 24.7801C46.67 25.0201 47.08 25.0701 47.43 24.9001C47.78 24.7301 48 24.3801 48 24.0001V23.0001H51C51.55 23.0001 52 22.5501 52 22.0001V18.0001ZM13 17.0001C12.45 17.0001 12 17.4501 12 18.0001V22.0001C12 22.5501 12.45 23.0001 13 23.0001H16V24.0001C16 24.3801 16.22 24.7301 16.57 24.9001C16.92 25.0701 17.33 25.0201 17.63 24.7801L22.63 20.7801C22.87 20.5901 23.01 20.3001 23.01 20.0001C23.01 19.7001 22.87 19.4101 22.63 19.2201L17.62 15.2201C17.32 14.9801 16.91 14.9301 16.56 15.1001C16.21 15.2701 15.99 15.6201 15.99 16.0001V17.0001H13ZM43.6 20.0001L46 18.0801C46.04 18.6001 46.47 19.0001 47 19.0001H50V21.0001H47C46.47 21.0001 46.04 21.4101 46 21.9201L43.6 20.0001ZM18 18.0801L20.4 20.0001L18 21.9201C17.96 21.4001 17.53 21.0001 17 21.0001H14V19.0001H17C17.53 19.0001 17.96 18.5901 18 18.0801ZM44.71 14.7101L45.71 13.7101C46.1 13.3201 46.1 12.6901 45.71 12.2901C45.32 11.9001 44.69 11.9001 44.29 12.2901L43.29 13.2901C42.9 13.6801 42.9 14.3101 43.29 14.7101C43.68 15.1001 44.31 15.1001 44.71 14.7101ZM20.71 13.2901L19.71 12.2901C19.32 11.9001 18.69 11.9001 18.29 12.2901C17.9 12.6801 17.9 13.3101 18.29 13.7101L19.29 14.7101C19.68 15.1001 20.31 15.1001 20.71 14.7101C21.1 14.3201 21.1 13.6901 20.71 13.2901Z" fill="#6C97EB"/>
</g>
<defs>
<clipPath id="clip0_15_39">
<rect width="40" height="40" fill="white" transform="translate(12 12)"/>
</clipPath>
</defs>
</svg>
