<svg width="64" height="64" viewBox="0 0 64 64" fill="none" xmlns="http://www.w3.org/2000/svg">
<rect width="64" height="64" rx="32" fill="#6C97EB" fill-opacity="0.15"/>
<g clip-path="url(#clip0_6_45)">
<path fill-rule="evenodd" clip-rule="evenodd" d="M19.2 12.8V19.2H16C15.1467 19.2 14.336 19.5413 13.7387 20.1386C13.1414 20.736 12.8 21.5573 12.8 22.4C12.8 23.2426 13.1414 24.064 13.7387 24.6613C14.336 25.2586 15.1574 25.6 16 25.6H18.1334V43.7333C18.1334 44.0533 18.2827 44.3626 18.5387 44.5653L23.4667 48.512V52.2666C23.4667 52.8533 23.9467 53.3333 24.5334 53.3333C25.12 53.3333 25.6 52.8533 25.6 52.2666V48.512L30.528 44.5653C30.784 44.3626 30.9334 44.0533 30.9334 43.7333V25.6H33.0667C33.92 25.6 34.7307 25.2586 35.328 24.6613C35.9254 24.064 36.2667 23.2426 36.2667 22.4C36.2667 21.5573 35.9254 20.736 35.328 20.1386C34.7307 19.5413 33.9094 19.2 33.0667 19.2H29.8667V12.8H30.9334C31.52 12.8 32 12.32 32 11.7333C32 11.1466 31.52 10.6666 30.9334 10.6666H18.1334C17.5467 10.6666 17.0667 11.1466 17.0667 11.7333C17.0667 12.32 17.5467 12.8 18.1334 12.8H19.2ZM28.8 27.7333V25.6H20.2667V43.2213L24.5334 46.6346L28.8 43.2213V42.6666H26.6667C26.08 42.6666 25.6 42.1866 25.6 41.6C25.6 41.0133 26.08 40.5333 26.6667 40.5333H28.8V38.4H26.6667C26.08 38.4 25.6 37.92 25.6 37.3333C25.6 36.7466 26.08 36.2666 26.6667 36.2666H28.8V34.1333H26.6667C26.08 34.1333 25.6 33.6533 25.6 33.0666C25.6 32.48 26.08 32 26.6667 32H28.8V29.8666H26.6667C26.08 29.8666 25.6 29.3866 25.6 28.8C25.6 28.2133 26.08 27.7333 26.6667 27.7333H28.8ZM43.7334 10.6666C39.616 10.6666 36.2667 14.016 36.2667 18.1333C36.2667 22.2506 39.616 25.6 43.7334 25.6C47.8507 25.6 51.2 22.2506 51.2 18.1333C51.2 14.016 47.8507 10.6666 43.7334 10.6666ZM16 21.3333H33.0667C33.3547 21.3333 33.6214 21.4506 33.824 21.6426C34.0267 21.8453 34.1334 22.112 34.1334 22.4C34.1334 22.688 34.016 22.9546 33.824 23.1573C33.6214 23.36 33.3547 23.4666 33.0667 23.4666H16C15.712 23.4666 15.4454 23.3493 15.2427 23.1573C15.04 22.9546 14.9334 22.688 14.9334 22.4C14.9334 22.112 15.0507 21.8453 15.2427 21.6426C15.4454 21.44 15.712 21.3333 16 21.3333ZM43.7334 12.8C46.6774 12.8 49.0667 15.1893 49.0667 18.1333C49.0667 21.0773 46.6774 23.4666 43.7334 23.4666C40.7894 23.4666 38.4 21.0773 38.4 18.1333C38.4 15.1893 40.7894 12.8 43.7334 12.8ZM43.7334 16.6293L42.2294 15.1253C41.8134 14.7093 41.1414 14.7093 40.7254 15.1253C40.3094 15.5413 40.3094 16.2133 40.7254 16.6293L42.2294 18.1333L40.7254 19.6373C40.3094 20.0533 40.3094 20.7253 40.7254 21.1413C41.1414 21.5573 41.8134 21.5573 42.2294 21.1413L43.7334 19.6373L45.2374 21.1413C45.6534 21.5573 46.3254 21.5573 46.7414 21.1413C47.1574 20.7253 47.1574 20.0533 46.7414 19.6373L45.2374 18.1333L46.7414 16.6293C47.1574 16.2133 47.1574 15.5413 46.7414 15.1253C46.3254 14.7093 45.6534 14.7093 45.2374 15.1253L43.7334 16.6293ZM23.4667 12.8V19.2H21.3334V12.8H23.4667ZM27.7334 12.8H25.6V19.2H27.7334V12.8Z" fill="#6C97EB"/>
</g>
<defs>
<clipPath id="clip0_6_45">
<rect width="42.6667" height="42.6667" fill="white" transform="translate(10.6667 10.6666)"/>
</clipPath>
</defs>
</svg>
