<svg width="48" height="48" viewBox="0 0 48 48" fill="none" xmlns="http://www.w3.org/2000/svg">
<rect width="48" height="48" rx="24" fill="white"/>
<path d="M17.3334 19.3335L21.2561 21.6527C23.543 23.0048 24.4571 23.0048 26.744 21.6527L30.6667 19.3335" stroke="#6C97EB" stroke-width="2" stroke-linecap="round" stroke-linejoin="round"/>
<path d="M10.6876 25.9673C10.7748 30.0547 10.8184 32.0984 12.3266 33.6123C13.8347 35.1263 15.9337 35.1789 20.1317 35.2844C22.719 35.3495 25.2809 35.3495 27.8682 35.2844C32.0662 35.1789 34.1652 35.1263 35.6733 33.6123C37.1816 32.0984 37.2252 30.0547 37.3122 25.9673C37.3404 24.6531 37.3404 23.3465 37.3122 22.0324C37.2252 17.945 37.1816 15.9013 35.6733 14.3874C34.1652 12.8735 32.0662 12.8207 27.8682 12.7153C25.2809 12.6503 22.719 12.6503 20.1317 12.7153C15.9337 12.8207 13.8347 12.8735 12.3266 14.3874C10.8184 15.9013 10.7748 17.945 10.6876 22.0323C10.6596 23.3465 10.6596 24.6531 10.6876 25.9673Z" stroke="#6C97EB" stroke-width="2" stroke-linejoin="round"/>
</svg>
