<svg width="64" height="64" viewBox="0 0 64 64" fill="none" xmlns="http://www.w3.org/2000/svg">
<rect width="64" height="64" rx="32" fill="#6C97EB" fill-opacity="0.15"/>
<g clip-path="url(#clip0_6_47)">
<path fill-rule="evenodd" clip-rule="evenodd" d="M32.7467 26.1014C31.2747 26.6881 28.16 27.7334 24.5334 27.7334C20.9067 27.7334 17.792 26.6987 16.32 26.1014C17.3334 23.6801 18.1334 21.3547 18.1334 19.2001C18.1334 16.1601 15.904 11.2854 15.904 11.2854C15.6587 10.7521 15.0187 10.5174 14.4854 10.7627C13.952 11.0081 13.7174 11.6481 13.9627 12.1814C13.9627 12.1814 16 16.5014 16 19.2001C16 21.7387 14.688 24.5227 13.4187 27.4454C12.032 30.6454 10.6667 33.9947 10.6667 37.3334C10.6667 46.0587 12.8534 52.6081 12.8534 52.6081C13.0347 53.1627 13.6427 53.4721 14.1974 53.2801C14.752 53.0987 15.0614 52.4907 14.8694 51.9361C14.8694 51.9361 14.784 51.6801 14.6454 51.2107H23.4667V52.2774C23.4667 52.8641 23.9467 53.3441 24.5334 53.3441C25.12 53.3441 25.6 52.8641 25.6 52.2774V51.2107H34.4107C34.272 51.6907 34.1867 51.9361 34.1867 51.9361C33.9947 52.4907 34.304 53.0987 34.8587 53.2801C35.4134 53.4721 36.0214 53.1627 36.2027 52.6081C36.2027 52.6081 38.3894 46.0694 38.3894 37.3334C38.3894 33.9947 37.024 30.6454 35.6374 27.4454C34.368 24.5227 33.056 21.7387 33.056 19.2001C33.056 16.5014 35.0934 12.1814 35.0934 12.1814C35.3387 11.6481 35.104 11.0187 34.5707 10.7627C34.0374 10.5174 33.408 10.7521 33.152 11.2854C33.152 11.2854 30.9227 16.1601 30.9227 19.2001C30.9227 21.3547 31.7334 23.6801 32.736 26.1014H32.7467ZM13.8454 32.0747C13.2374 33.8134 12.8 35.5627 12.8 37.3334C12.8 42.2614 13.5254 46.4534 14.1227 49.0667H23.4667V40.5334C23.4667 39.9467 23.9467 39.4667 24.5334 39.4667C25.12 39.4667 25.6 39.9467 25.6 40.5334V49.0667H34.944C35.5414 46.4534 36.2667 42.2614 36.2667 37.3334C36.2667 35.5734 35.8294 33.8134 35.2214 32.0747C33.9094 32.5974 29.6427 34.1334 24.5334 34.1334C19.424 34.1334 15.1467 32.5974 13.8454 32.0747ZM15.4774 28.0641L15.3814 28.2881C15.1254 28.8854 14.8587 29.4827 14.6134 30.0801C15.7227 30.5281 19.7227 31.9894 24.5334 31.9894C29.344 31.9894 33.344 30.5281 34.4534 30.0801C34.208 29.4721 33.9414 28.8747 33.6854 28.2881L33.5894 28.0641C31.9574 28.7147 28.5334 29.8667 24.5334 29.8667C20.5334 29.8667 17.1094 28.7254 15.4774 28.0641ZM43.7334 12.8001V13.9307C42.3467 14.1014 41.0667 14.6134 39.968 15.3601L39.2854 14.3361C38.9547 13.8454 38.2934 13.7174 37.8027 14.0374C37.312 14.3681 37.184 15.0294 37.504 15.5201L38.3574 16.8001C37.056 18.3041 36.256 20.2561 36.256 22.4001C36.256 27.1147 40.0747 30.9334 44.7894 30.9334C49.504 30.9334 53.3227 27.1147 53.3227 22.4001C53.3227 20.2561 52.5334 18.3041 51.2214 16.8001L52.0747 15.5201C52.4054 15.0294 52.2667 14.3681 51.776 14.0374C51.2854 13.7067 50.624 13.8454 50.2934 14.3361L49.6107 15.3601C48.512 14.6027 47.232 14.1014 45.8454 13.9307V12.8001H46.912C47.4987 12.8001 47.9787 12.3201 47.9787 11.7334C47.9787 11.1467 47.52 10.6667 46.9334 10.6667H42.6667C42.08 10.6667 41.6 11.1467 41.6 11.7334C41.6 12.3201 42.08 12.8001 42.6667 12.8001H43.7334ZM44.8 16.0001C48.3307 16.0001 51.2 18.8694 51.2 22.4001C51.2 25.9307 48.3307 28.8001 44.8 28.8001C41.2694 28.8001 38.4 25.9307 38.4 22.4001C38.4 18.8694 41.2694 16.0001 44.8 16.0001ZM23.4667 23.4667V24.5334C23.4667 25.1201 23.9467 25.6001 24.5334 25.6001C25.12 25.6001 25.6 25.1201 25.6 24.5334V23.4667C25.6 22.8801 25.12 22.4001 24.5334 22.4001C23.9467 22.4001 23.4667 22.8801 23.4667 23.4667ZM43.7334 19.2001V22.4001C43.7334 22.9867 44.2134 23.4667 44.8 23.4667H48C48.5867 23.4667 49.0667 22.9867 49.0667 22.4001C49.0667 21.8134 48.5867 21.3334 48 21.3334H45.8667V19.2001C45.8667 18.6134 45.3867 18.1334 44.8 18.1334C44.2134 18.1334 43.7334 18.6134 43.7334 19.2001Z" fill="#6C97EB"/>
</g>
<defs>
<clipPath id="clip0_6_47">
<rect width="42.6667" height="42.6667" fill="white" transform="translate(10.6667 10.6666)"/>
</clipPath>
</defs>
</svg>
