<svg width="48" height="48" viewBox="0 0 48 48" fill="none" xmlns="http://www.w3.org/2000/svg">
<rect width="48" height="48" rx="24" fill="white"/>
<path d="M23.9805 28.5444L28.3024 33.4582C29.9036 35.2786 30.7043 36.1888 31.5423 35.9672C32.3803 35.7456 32.6677 34.5478 33.2424 32.1518L36.4305 18.8612C37.3158 15.1711 37.7583 13.3261 36.7744 12.416C35.7907 11.506 34.0853 12.183 30.6748 13.5371L14.8517 19.8193C12.1239 20.9023 10.76 21.4439 10.6734 22.3744C10.6645 22.4696 10.6644 22.5655 10.6729 22.6607C10.7567 23.5916 12.1189 24.1378 14.8434 25.2298C16.0778 25.7246 16.695 25.972 17.1376 26.4459C17.1873 26.4991 17.2352 26.5543 17.281 26.6112C17.6887 27.1179 17.8628 27.7828 18.2108 29.1126L18.862 31.6014C19.2006 32.8954 19.37 33.5424 19.8134 33.6307C20.2569 33.7188 20.643 33.1823 21.4152 32.1092L23.9805 28.5444ZM23.9805 28.5444L23.5568 28.1028C23.0745 27.6002 22.8335 27.349 22.8335 27.0367C22.8335 26.7244 23.0745 26.4731 23.5568 25.9704L28.3208 21.0055" stroke="#6C97EB" stroke-width="2" stroke-linecap="round" stroke-linejoin="round"/>
</svg>
