<svg width="30" height="30" viewBox="0 0 30 30" fill="none" xmlns="http://www.w3.org/2000/svg">
<g clip-path="url(#clip0_83_2)">
<path d="M15 0.577148C7.03844 0.577148 0.576904 7.03869 0.576904 15.0002C0.576904 22.9618 7.03844 29.4233 15 29.4233C22.9615 29.4233 29.4231 22.9618 29.4231 15.0002C29.4231 7.03869 22.9615 0.577148 15 0.577148ZM21.6923 10.3848C21.4759 12.6637 20.5384 18.2021 20.0625 20.755C19.8606 21.8368 19.4567 22.1973 19.0817 22.2406C18.2452 22.3127 17.6106 21.6925 16.8029 21.1589C15.5336 20.3223 14.8125 19.8031 13.5865 18.9954C12.1586 18.0579 13.0817 17.5387 13.9038 16.7021C14.1202 16.4858 17.8125 13.1252 17.8846 12.8223C17.8946 12.7765 17.8933 12.7288 17.8807 12.6836C17.8681 12.6384 17.8447 12.5969 17.8125 12.5627C17.7259 12.4906 17.6106 12.5195 17.5096 12.5339C17.3798 12.5627 15.3606 13.9041 11.4231 16.5579C10.8461 16.9473 10.3269 17.1493 9.86537 17.1348C9.34613 17.1204 8.36537 16.8464 7.62979 16.6012C6.72114 16.3127 6.0144 16.1541 6.0721 15.6493C6.10094 15.3896 6.46152 15.13 7.1394 14.856C11.3509 13.0243 14.149 11.8127 15.5481 11.2358C19.5577 9.56273 20.3798 9.27426 20.9279 9.27426C21.0433 9.27426 21.3173 9.30311 21.4904 9.44734C21.6346 9.56273 21.6779 9.72138 21.6923 9.83676C21.6779 9.9233 21.7067 10.1829 21.6923 10.3848Z" fill="white"/>
</g>
<defs>
<clipPath id="clip0_83_2">
<rect width="30" height="30" fill="white"/>
</clipPath>
</defs>
</svg>
