<svg width="44" height="48" viewBox="0 0 44 48" fill="none" xmlns="http://www.w3.org/2000/svg">
<g clip-path="url(#clip0_20_53)">
<path fill-rule="evenodd" clip-rule="evenodd" d="M22 0C9.8494 0 0 9.85129 0 22.0042C0 26.163 1.155 30.0578 3.1636 33.376L1.2012 40.0477C1.08853 40.4307 1.08111 40.8371 1.17974 41.224C1.27836 41.6109 1.47938 41.9641 1.76167 42.2464C2.04396 42.5288 2.39708 42.7298 2.78392 42.8285C3.17075 42.9271 3.57702 42.9197 3.96 42.807L10.6304 40.8442C14.0596 42.9191 17.9921 44.0135 22 44.0084C34.1506 44.0084 44 34.1571 44 22.0042C44 9.85129 34.1506 0 22 0ZM17.0236 26.9838C21.4742 31.433 25.7224 32.0205 27.2228 32.0755C29.5042 32.1592 31.7262 30.4164 32.5908 28.3942C32.699 28.1425 32.7381 27.8664 32.7041 27.5945C32.6701 27.3226 32.5641 27.0647 32.3972 26.8473C31.1916 25.3071 29.5614 24.2002 27.9686 23.1C27.6362 22.8695 27.2274 22.7769 26.8281 22.8418C26.4289 22.9066 26.0704 23.1238 25.828 23.4477L24.508 25.4611C24.4382 25.5689 24.3301 25.6462 24.2055 25.6772C24.0809 25.7083 23.9492 25.6908 23.837 25.6283C22.9416 25.1156 21.637 24.2442 20.6998 23.3069C19.7626 22.3695 18.9442 21.124 18.4844 20.2857C18.4288 20.1789 18.4131 20.0557 18.4401 19.9383C18.4671 19.821 18.5351 19.7171 18.6318 19.6454L20.6646 18.1359C20.9555 17.8841 21.1434 17.5339 21.1921 17.1522C21.2408 16.7705 21.147 16.3843 20.9286 16.0675C19.943 14.624 18.7946 12.7889 17.1292 11.572C16.9138 11.4172 16.6621 11.3207 16.3985 11.2918C16.1348 11.2629 15.8682 11.3026 15.6244 11.407C13.6004 12.274 11.8492 14.4964 11.9328 16.7826C11.9878 18.2833 12.5752 22.5323 17.0236 26.9838Z" fill="white"/>
</g>
<defs>
<clipPath id="clip0_20_53">
<rect width="44" height="48" fill="white"/>
</clipPath>
</defs>
</svg>
