<svg width="64" height="64" viewBox="0 0 64 64" fill="none" xmlns="http://www.w3.org/2000/svg">
<rect width="64" height="64" rx="32" fill="#6C97EB" fill-opacity="0.15"/>
<path fill-rule="evenodd" clip-rule="evenodd" d="M18.5167 43.4721C18.4988 44.4079 18.6697 47.0802 21.2341 48.5289C22.9166 49.4826 26.1828 49.8336 29.3051 49.9505C29.7549 49.9775 30.2498 49.9955 30.7807 49.9955H33.2461C33.453 49.9955 33.651 49.9955 33.8219 49.9775C37.2051 49.9055 40.9391 49.5726 42.7927 48.5289C45.366 47.0802 45.537 44.3989 45.51 43.4632C46.3378 43.1482 47.0576 42.8063 47.6515 42.4464C49.2081 41.4926 49.9909 40.3409 49.9909 39.1982C49.9909 38.0555 49.2081 36.9038 47.6515 35.95C44.7182 34.1595 38.8067 32.8998 31.9954 32.8998C25.1841 32.8998 19.2726 34.1595 16.3393 35.95C14.7827 36.9038 13.9999 38.0555 13.9999 39.1982C13.9999 40.3409 14.7827 41.4926 16.3393 42.4464C16.9421 42.8153 17.671 43.1572 18.4988 43.4721H18.5167ZM43.7104 44.057C40.5972 44.9478 36.5033 45.4966 32.0044 45.4966C27.5055 45.4966 23.4295 44.9478 20.3253 44.066C20.3973 44.8758 20.7392 46.1805 22.1248 46.9633C24.1313 48.097 28.5852 48.196 32.0224 48.196C35.4595 48.196 39.9134 48.097 41.9199 46.9633C43.3056 46.1805 43.6475 44.8668 43.7194 44.057H43.7104ZM32.0044 34.6993C37.52 34.6993 42.4148 35.5361 45.447 36.8408C46.3738 37.2367 47.1116 37.6686 47.6155 38.1455C47.9754 38.4874 48.2093 38.8203 48.2093 39.1982C48.2093 39.5761 47.9754 39.909 47.6155 40.251C47.1116 40.7278 46.3738 41.1597 45.447 41.5556C42.4148 42.8603 37.52 43.6971 32.0044 43.6971C26.4888 43.6971 21.594 42.8603 18.5617 41.5556C17.635 41.1597 16.8972 40.7278 16.3933 40.251C16.0334 39.909 15.7994 39.5761 15.7994 39.1982C15.7994 38.8203 16.0334 38.4874 16.3933 38.1455C16.8972 37.6686 17.635 37.2367 18.5617 36.8408C21.594 35.5361 26.4888 34.6993 32.0044 34.6993ZM31.7794 36.4989C26.7227 36.4989 22.4398 37.0837 20.9191 37.8216C20.1273 38.2085 19.8574 38.7663 19.8574 39.1982C19.8574 39.6301 20.1273 40.188 20.9191 40.5749C22.4308 41.3127 26.7227 41.8975 31.7794 41.8975C36.8362 41.8975 41.1191 41.3127 42.6397 40.5749C43.4315 40.188 43.7015 39.6301 43.7015 39.1982C43.7015 38.7663 43.4315 38.2085 42.6397 37.8216C41.1281 37.0837 36.8362 36.4989 31.7794 36.4989ZM41.2001 39.1982C39.3825 39.7381 35.8464 40.098 31.7794 40.098C27.7125 40.098 24.1763 39.7381 22.3588 39.1982C24.1763 38.6584 27.7125 38.2984 31.7794 38.2984C35.8464 38.2984 39.3825 38.6584 41.2001 39.1982ZM46.4008 33.7996C47.6425 33.7996 48.6502 32.7918 48.6502 31.5501V22.0035C49.46 21.1847 49.9999 19.943 49.9999 18.5034C49.9999 15.957 48.3083 14.0045 46.4008 14.0045C44.4933 14.0045 42.8017 15.957 42.8017 18.5034C42.8017 19.934 43.3415 21.1847 44.1513 22.0035V31.5501C44.1513 32.7918 45.1591 33.7996 46.4008 33.7996ZM18.0579 33.7996C19.2996 33.7996 20.3073 32.7918 20.3073 31.5501V21.6256C21.387 21.0048 22.1069 19.8441 22.1069 18.5124V14.9043C22.1069 14.4094 21.702 14.0045 21.2071 14.0045C20.7122 14.0045 20.3073 14.4094 20.3073 14.9043V18.5124C20.3073 19.5021 19.5065 20.3029 18.5167 20.3029H17.608C16.6182 20.3029 15.8174 19.5021 15.8174 18.5124V14.9043C15.8174 14.4094 15.4125 14.0045 14.9176 14.0045C14.4228 14.0045 14.0089 14.4094 14.0089 14.9043V18.5124C14.0089 19.8441 14.7287 21.0048 15.8084 21.6256V31.5501C15.8084 32.7918 16.8162 33.7996 18.0579 33.7996ZM46.4008 32C46.6527 32 46.8507 31.8021 46.8507 31.5501V22.9663C46.7067 22.9933 46.5537 23.0023 46.4008 23.0023C46.2478 23.0023 46.0949 22.9933 45.9509 22.9663V31.5501C45.9509 31.8021 46.1488 32 46.4008 32ZM18.0579 32C18.3098 32 18.5078 31.8021 18.5078 31.5501V22.1025H17.608V31.5501C17.608 31.8021 17.8059 32 18.0579 32ZM31.6175 29.3187C31.5995 29.4627 31.5725 29.6066 31.5545 29.7506C31.5005 30.2005 31.7884 30.6234 32.2293 30.7313C34.7667 31.3522 36.6382 31.1362 37.8439 30.2724C39.0946 29.3727 39.7604 27.7441 39.6435 25.3147C39.6255 24.9548 39.4005 24.6399 39.0586 24.5139C36.9082 23.7131 35.1986 23.8211 33.9299 24.7028C33.543 24.9728 33.1831 25.3327 32.8772 25.7736C32.2743 23.5691 31.2666 22.0575 29.9439 21.1757C28.1623 19.997 25.7509 19.889 22.7187 20.9598C22.3768 21.0857 22.1428 21.4007 22.1248 21.7606C21.9539 25.0717 22.8537 27.2942 24.6442 28.5089C26.2008 29.5706 28.5222 29.8765 31.6175 29.3097V29.3187ZM33.471 29.1567C33.7409 27.7081 34.2088 26.7093 34.9736 26.1785C35.7115 25.6656 36.6832 25.6476 37.8709 26.0075C37.8619 27.3302 37.547 28.2749 36.8092 28.8058C36.0534 29.3457 34.9376 29.4267 33.471 29.1567ZM35.7924 28.6978L36.6922 27.7981C37.0431 27.4472 37.0431 26.8803 36.6922 26.5204C36.3413 26.1695 35.7744 26.1695 35.4145 26.5204L34.5147 27.4202C34.1638 27.7711 34.1638 28.3379 34.5147 28.6978C34.8657 29.0488 35.4325 29.0488 35.7924 28.6978ZM31.4375 27.5281C28.8732 28.032 26.9476 27.906 25.661 27.0333C24.4193 26.1875 23.8884 24.6489 23.9064 22.4714C25.9939 21.8236 27.6855 21.8326 28.9541 22.6783C30.2228 23.5241 31.0236 25.1437 31.4375 27.5281ZM29.8269 25.3957L26.6777 23.1462C26.2728 22.8583 25.7149 22.9483 25.418 23.3532C25.1301 23.7581 25.2201 24.3159 25.625 24.6129L28.7742 26.8623C29.1791 27.1502 29.7369 27.0603 30.0339 26.6554C30.3218 26.2505 30.2318 25.6926 29.8269 25.4047V25.3957ZM46.4008 15.8041C46.8687 15.8041 47.2826 16.083 47.5885 16.4969C47.9754 17.0098 48.2003 17.7206 48.2003 18.5034C48.2003 19.2862 47.9754 19.997 47.5885 20.5099C47.2826 20.9238 46.8687 21.2027 46.4008 21.2027C45.9329 21.2027 45.519 20.9238 45.2131 20.5099C44.8262 19.997 44.6012 19.2862 44.6012 18.5034C44.6012 17.7206 44.8262 17.0098 45.2131 16.4969C45.519 16.083 45.9329 15.8041 46.4008 15.8041ZM18.9576 18.5034V14.9043C18.9576 14.4094 18.5527 14.0045 18.0579 14.0045C17.563 14.0045 17.1581 14.4094 17.1581 14.9043V18.5034C17.1581 18.9983 17.563 19.4032 18.0579 19.4032C18.5527 19.4032 18.9576 18.9983 18.9576 18.5034Z" fill="#6C97EB"/>
</svg>
