<svg width="64" height="64" viewBox="0 0 64 64" fill="none" xmlns="http://www.w3.org/2000/svg">
<rect width="64" height="64" rx="32" fill="#6C97EB" fill-opacity="0.15"/>
<g clip-path="url(#clip0_15_25)">
<path fill-rule="evenodd" clip-rule="evenodd" d="M15 36.04C14.26 36.15 13.56 36.49 13.03 37.03C12.37 37.69 12 38.58 12 39.5C12 41.28 13.32 42.74 15.04 42.97C15.13 44.5 15.44 47.49 16.49 49.52C17.26 51.01 18.43 52 20.01 52H38C39.58 52 40.74 51.01 41.52 49.52C42.57 47.49 42.88 44.5 42.97 42.97C44.68 42.74 46.01 41.28 46.01 39.5C46.01 38.57 45.64 37.68 44.98 37.03C44.44 36.49 43.75 36.15 43.01 36.04C42.94 34.53 42.5 31.66 40.39 29.22C38.43 26.95 35.02 25 29.01 25C23 25 19.59 26.95 17.63 29.22C15.52 31.66 15.08 34.53 15.01 36.04H15ZM40.15 43C40.13 43.15 40.11 43.3 40.09 43.44C39.96 44.25 39.71 44.9 39.39 45.31C39.02 45.77 38.56 46.01 38.01 46.01C36.72 46.01 36.07 45.12 35.71 43.88C35.58 43.43 35.48 42.94 35.34 42.51C35.29 42.38 35.25 42.25 35.18 42.14C35.14 42.07 35.1 42.01 35.01 42.01C34.94 42.01 34.92 42.09 34.87 42.13C34.76 42.23 34.66 42.33 34.55 42.42C34.16 42.75 33.7 43.01 33.01 43.01H30.37L24.65 47.78C24.28 48.09 23.74 48.09 23.37 47.78L17.65 43.01H17.05C17.12 44.11 17.3 45.95 17.83 47.53C18.07 48.26 18.38 48.93 18.81 49.41C19.13 49.77 19.52 50.01 20.01 50.01H38C38.5 50.01 38.89 49.77 39.2 49.41C39.63 48.93 39.94 48.25 40.18 47.53C40.71 45.95 40.89 44.12 40.96 43.01H40.14L40.15 43ZM24 45.7L27.24 43H20.76L24 45.7ZM32.12 38C32.18 38.69 32.23 39.41 32.35 40.03C32.4 40.26 32.45 40.47 32.54 40.65C32.63 40.85 32.76 41 33 41C33.18 41 33.27 40.87 33.37 40.78C33.51 40.65 33.65 40.52 33.8 40.41C34.13 40.16 34.51 40 35 40C36.29 40 36.94 40.89 37.3 42.13C37.43 42.58 37.53 43.07 37.67 43.5C37.72 43.63 37.86 43.92 37.88 43.94C37.9 43.91 38.07 43.38 38.11 43.11C38.37 41.54 38.22 39.24 38.1 38H32.12ZM40.1 38C40.17 38.79 40.24 39.89 40.24 41H42.49C43.32 41 43.99 40.33 43.99 39.5C43.99 39.1 43.83 38.72 43.55 38.44C43.27 38.16 42.89 38 42.49 38H40.09H40.1ZM30.12 38H15.5C15.1 38 14.72 38.16 14.44 38.44C14.16 38.72 14 39.1 14 39.5C14 40.33 14.67 41 15.5 41H30.54C30.28 40.14 30.23 39.01 30.12 38ZM41 36C40.93 34.76 40.55 32.48 38.87 30.53C37.18 28.57 34.19 27 29 27C23.81 27 20.82 28.57 19.13 30.53C17.45 32.48 17.07 34.77 17 36H41ZM35 33C35.55 33 36 33.45 36 34C36 34.55 35.55 35 35 35C34.45 35 34 34.55 34 34C34 33.45 34.45 33 35 33ZM29 32C29.55 32 30 32.45 30 33C30 33.55 29.55 34 29 34C28.45 34 28 33.55 28 33C28 32.45 28.45 32 29 32ZM22 32C22.55 32 23 32.45 23 33C23 33.55 22.55 34 22 34C21.45 34 21 33.55 21 33C21 32.45 21.45 32 22 32ZM26 29C26.55 29 27 29.45 27 30C27 30.55 26.55 31 26 31C25.45 31 25 30.55 25 30C25 29.45 25.45 29 26 29ZM32 29C32.55 29 33 29.45 33 30C33 30.55 32.55 31 32 31C31.45 31 31 30.55 31 30C31 29.45 31.45 29 32 29ZM44 12C39.58 12 36 15.58 36 20C36 24.42 39.58 28 44 28C48.42 28 52 24.42 52 20C52 15.58 48.42 12 44 12ZM44 14C47.31 14 50 16.69 50 20C50 23.31 47.31 26 44 26C40.69 26 38 23.31 38 20C38 16.69 40.69 14 44 14ZM44 18.59L41.88 16.47C41.49 16.08 40.86 16.08 40.47 16.47C40.08 16.86 40.08 17.49 40.47 17.88L42.59 20L40.47 22.12C40.08 22.51 40.08 23.14 40.47 23.53C40.86 23.92 41.49 23.92 41.88 23.53L44 21.41L46.12 23.53C46.51 23.92 47.14 23.92 47.53 23.53C47.92 23.14 47.92 22.51 47.53 22.12L45.41 20L47.53 17.88C47.92 17.49 47.92 16.86 47.53 16.47C47.14 16.08 46.51 16.08 46.12 16.47L44 18.59Z" fill="#6C97EB"/>
</g>
<defs>
<clipPath id="clip0_15_25">
<rect width="40" height="40" fill="white" transform="translate(12 12)"/>
</clipPath>
</defs>
</svg>
