<svg width="64" height="64" viewBox="0 0 64 64" fill="none" xmlns="http://www.w3.org/2000/svg">
<rect width="64" height="64" rx="32" fill="#6C97EB" fill-opacity="0.15"/>
<g clip-path="url(#clip0_15_11)">
<path fill-rule="evenodd" clip-rule="evenodd" d="M40.24 15.39C39.23 14.55 38.49 14.13 38.49 14.13C38.01 13.86 37.4 14.02 37.13 14.5C36.86 14.98 37.02 15.59 37.5 15.86C37.5 15.86 44 19.57 44 26.99C44 28.34 43.01 29.47 41.6 30.4C39.15 32.02 35.4 32.99 32 32.99C28.6 32.99 24.85 32.03 22.4 30.4C20.99 29.46 20 28.33 20 26.99C20 19.58 26.5 15.87 26.5 15.87C26.98 15.6 27.15 14.99 26.87 14.51C26.6 14.03 25.99 13.86 25.51 14.14C25.51 14.14 24.77 14.56 23.76 15.4C23.35 14.12 22.48 13.29 21.8 12.4C21.46 11.96 20.84 11.88 20.4 12.21C19.96 12.55 19.88 13.17 20.21 13.61C20.91 14.52 22 15.29 22 17C22 17.02 22 17.05 22 17.07C20.05 19.21 18 22.52 18 27C18 28.95 19.25 30.72 21.3 32.08C21.34 32.11 21.37 32.13 21.41 32.15C19.86 33.83 17 37.77 17 44C17 46.56 19.08 51.4 19.08 51.4C19.3 51.91 19.89 52.14 20.4 51.92C20.91 51.7 21.14 51.11 20.92 50.6C20.92 50.6 20.33 49.27 19.8 47.69C21.75 46.54 23.19 46 25.01 46C26.93 46 29.17 46.57 31.01 47.57V51C31.01 51.55 31.46 52 32.01 52C32.56 52 33.01 51.55 33.01 51V47.57C34.85 46.56 37.09 45.99 39.01 46C40.82 46 42.27 46.54 44.22 47.69C43.69 49.27 43.1 50.6 43.1 50.6C42.88 51.1 43.1 51.7 43.62 51.92C44.12 52.14 44.72 51.91 44.94 51.4C44.94 51.4 47.02 46.56 47.02 44C47.02 37.78 44.16 33.83 42.61 32.15C42.65 32.13 42.69 32.1 42.72 32.08C44.77 30.72 46.02 28.96 46.02 27C46.02 22.52 43.97 19.21 42.02 17.07C42.02 17.05 42.02 17.03 42.02 17C42.02 15.28 43.12 14.52 43.81 13.61C44.15 13.17 44.06 12.54 43.62 12.21C43.18 11.87 42.55 11.96 42.22 12.4C41.54 13.29 40.67 14.12 40.26 15.4L40.24 15.39ZM20.99 36.14C19.95 37.99 19 40.62 19 44C19 44.5 19.09 45.09 19.23 45.71C21.33 44.52 22.98 44.01 25 44C26.9 44 29.08 44.48 31 45.34V43C31 42.45 31.45 42 32 42C32.55 42 33 42.45 33 43V45.34C34.92 44.47 37.1 44 39 44C41.02 44 42.67 44.52 44.77 45.71C44.91 45.09 45 44.5 45 44C45 40.61 44.05 37.99 43.01 36.14C41.55 36.91 37.13 39 32 39C26.87 39 22.45 36.91 20.99 36.14ZM23.23 33.14C22.95 33.42 22.54 33.86 22.09 34.45C23.52 35.19 27.46 36.99 32 36.99C36.54 36.99 40.48 35.19 41.91 34.45C41.46 33.85 41.05 33.41 40.77 33.14C38.2 34.31 34.99 35 32 35C29.01 35 25.8 34.32 23.23 33.14ZM32 27C30.62 27 29.5 28.12 29.5 29.5C29.5 30.88 30.62 32 32 32C33.38 32 34.5 30.88 34.5 29.5C34.5 28.12 33.38 27 32 27ZM32 29C32.28 29 32.5 29.22 32.5 29.5C32.5 29.78 32.28 30 32 30C31.72 30 31.5 29.78 31.5 29.5C31.5 29.22 31.72 29 32 29Z" fill="#6C97EB"/>
</g>
<defs>
<clipPath id="clip0_15_11">
<rect width="30" height="40" fill="white" transform="translate(17 12)"/>
</clipPath>
</defs>
</svg>
