<svg width="64" height="64" viewBox="0 0 64 64" fill="none" xmlns="http://www.w3.org/2000/svg">
<rect width="64" height="64" rx="32" fill="#6C97EB" fill-opacity="0.15"/>
<g clip-path="url(#clip0_15_5)">
<path fill-rule="evenodd" clip-rule="evenodd" d="M37.3 48.1799C38.71 50.4699 41.24 51.9999 44.12 51.9999C48.54 51.9999 52.12 48.4199 52.12 43.9999C52.12 39.5799 48.72 36.1899 44.47 36.0099C45.98 30.8399 46.52 24.8899 46.12 18.9399C46.08 18.3899 45.61 17.9699 45.06 18.0099C39.32 18.3899 34.29 16.2799 29.79 12.2599C29.41 11.9199 28.84 11.9199 28.46 12.2599C23.96 16.2699 18.93 18.3799 13.19 17.9999C12.64 17.9599 12.16 18.3799 12.13 18.9299C11.51 28.1599 13.14 37.3799 17.18 43.7299C19.96 48.1099 23.88 51.1399 28.96 51.9899C29.07 52.0099 29.18 52.0099 29.29 51.9899C32.4 51.4699 35.06 50.1399 37.31 48.1799H37.3ZM44.12 37.9999C47.43 37.9999 50.12 40.6899 50.12 43.9999C50.12 47.3099 47.43 49.9999 44.12 49.9999C40.81 49.9999 38.12 47.3099 38.12 43.9999C38.12 40.6899 40.81 37.9999 44.12 37.9999ZM42.32 36.1999C43.86 31.3499 44.46 25.7099 44.18 20.0399C38.59 20.1499 33.61 18.1099 29.12 14.3199C24.63 18.1099 19.65 20.1499 14.06 20.0399C13.72 27.0399 14.7 33.9799 17.16 39.4699C19.62 44.9599 23.54 48.9899 29.12 49.9899C31.99 49.4799 34.42 48.1699 36.44 46.2599C36.23 45.5499 36.12 44.8099 36.12 44.0399C34.25 46.0999 31.96 47.5399 29.29 47.9899C29.18 48.0099 29.07 48.0099 28.95 47.9899C25.09 47.3299 22.05 44.6499 19.89 40.9699C16.79 35.6799 15.54 28.3199 16.22 22.4699C16.28 21.9399 16.75 21.5499 17.28 21.5899C21.48 21.8699 25.16 20.2799 28.44 17.2699C28.82 16.9199 29.41 16.9199 29.79 17.2699C33.08 20.2799 36.76 21.8699 40.95 21.5899C41.48 21.5499 41.95 21.9399 42.01 22.4699C42.53 26.9699 41.91 32.3699 40.18 37.0399C40.84 36.6699 41.55 36.3899 42.31 36.2099L42.32 36.1999ZM40.51 45.7899L43.08 47.7899C43.3 47.9599 43.57 48.0299 43.85 47.9899C44.12 47.9499 44.36 47.7899 44.52 47.5699L47.95 42.5699C48.26 42.1099 48.15 41.4899 47.69 41.1799C47.23 40.8699 46.61 40.9799 46.3 41.4399L43.47 45.5599L41.74 44.2099C41.3 43.8699 40.68 43.9499 40.34 44.3899C40 44.8299 40.08 45.4499 40.52 45.7899H40.51ZM29.12 19.3299C32.41 22.1199 36.05 23.6399 40.12 23.6099C40.53 28.8999 39.35 35.2899 36.62 39.9499C34.81 43.0299 32.33 45.3699 29.12 45.9799C25.91 45.3699 23.42 43.0299 21.62 39.9499C18.89 35.2899 17.71 28.8999 18.12 23.6099C22.19 23.6399 25.83 22.1199 29.12 19.3299ZM31.12 38.9999C31.67 38.9999 32.12 38.5499 32.12 37.9999V34.9999H35.12C35.67 34.9999 36.12 34.5499 36.12 33.9999V29.9999C36.12 29.4499 35.67 28.9999 35.12 28.9999H32.12V25.9999C32.12 25.4499 31.67 24.9999 31.12 24.9999H27.12C26.57 24.9999 26.12 25.4499 26.12 25.9999V28.9999H23.12C22.57 28.9999 22.12 29.4499 22.12 29.9999V33.9999C22.12 34.5499 22.57 34.9999 23.12 34.9999H26.12V37.9999C26.12 38.5499 26.57 38.9999 27.12 38.9999H31.12ZM30.12 36.9999H28.12V33.9999C28.12 33.4499 27.67 32.9999 27.12 32.9999H24.12V30.9999H27.12C27.67 30.9999 28.12 30.5499 28.12 29.9999V26.9999H30.12V29.9999C30.12 30.5499 30.57 30.9999 31.12 30.9999H34.12V32.9999H31.12C30.57 32.9999 30.12 33.4499 30.12 33.9999V36.9999Z" fill="#6C97EB"/>
</g>
<defs>
<clipPath id="clip0_15_5">
<rect width="40" height="40" fill="white" transform="translate(12 12)"/>
</clipPath>
</defs>
</svg>
