<svg width="64" height="64" viewBox="0 0 64 64" fill="none" xmlns="http://www.w3.org/2000/svg">
<rect width="64" height="64" rx="32" fill="#6C97EB" fill-opacity="0.15"/>
<path d="M24 46C26.2091 46 28 44.2092 28 42C28 39.7908 26.2091 38 24 38C21.7909 38 20 39.7908 20 42C20 44.2092 21.7909 46 24 46Z" stroke="#6C97EB" stroke-width="2.5" stroke-miterlimit="1.5" stroke-linecap="round" stroke-linejoin="round"/>
<path d="M44 46C46.2092 46 48 44.2092 48 42C48 39.7908 46.2092 38 44 38C41.7908 38 40 39.7908 40 42C40 44.2092 41.7908 46 44 46Z" stroke="#6C97EB" stroke-width="2.5" stroke-miterlimit="1.5" stroke-linecap="round" stroke-linejoin="round"/>
<path d="M28.1 42H38V21.2C38 20.5373 37.4628 20 36.8 20H10" stroke="#6C97EB" stroke-width="2.5" stroke-linecap="round"/>
<path d="M19.3 42H15.2C14.5373 42 14 41.4628 14 40.8V31" stroke="#6C97EB" stroke-width="2.5" stroke-linecap="round"/>
<path d="M12 26H20" stroke="#6C97EB" stroke-width="2.5" stroke-linecap="round" stroke-linejoin="round"/>
<path d="M38 26H49.2202C49.6944 26 50.1242 26.2793 50.3168 26.7126L53.8966 34.7672C53.9648 34.9208 54 35.0868 54 35.2546V40.8C54 41.4628 53.4628 42 52.8 42H49" stroke="#6C97EB" stroke-width="2.5" stroke-linecap="round"/>
<path d="M38 42H40" stroke="#6C97EB" stroke-width="2.5" stroke-linecap="round"/>
</svg>
