<svg width="64" height="64" viewBox="0 0 64 64" fill="none" xmlns="http://www.w3.org/2000/svg">
<rect width="64" height="64" rx="32" fill="#6C97EB" fill-opacity="0.15"/>
<g clip-path="url(#clip0_15_32)">
<path fill-rule="evenodd" clip-rule="evenodd" d="M34.61 17.67C32.9 18.31 31.29 19.44 29.97 21.14C25.81 15.76 18.66 16.06 14.97 19.58C11.14 23.23 10.95 30.53 14.77 37.82C17.34 43.06 23.92 48.34 29.44 51.84C29.77 52.05 30.18 52.05 30.51 51.84C36.03 48.34 42.61 43.05 45.19 37.79C46.87 34.59 47.78 31.38 47.95 28.5C50.38 26.89 51.98 24.13 51.98 21C51.98 16.03 47.95 12 42.98 12C39.19 12 35.94 14.35 34.62 17.67H34.61ZM34.01 20.17C32.8 20.89 31.7 21.96 30.83 23.43C30.65 23.73 30.32 23.92 29.97 23.92C29.62 23.92 29.29 23.73 29.11 23.43C25.92 18.05 19.54 17.99 16.34 21.03C15.07 22.24 14.32 23.95 14.07 25.95C13.66 29.14 14.5 33.02 16.54 36.9C16.54 36.9 16.54 36.92 16.55 36.92C18.9 41.73 24.86 46.51 29.97 49.82C35.08 46.51 41.03 41.73 43.39 36.92C43.39 36.92 43.39 36.9 43.4 36.9C44.72 34.38 45.54 31.87 45.84 29.54C44.94 29.84 43.97 30.01 42.97 30.01C38 30.01 33.97 25.98 33.97 21.01C33.97 20.73 33.98 20.45 34.01 20.18V20.17ZM17.98 35H20.98C21.31 35 21.63 34.83 21.81 34.55L22.98 32.8L24.15 34.55C24.35 34.86 24.71 35.03 25.07 34.99C25.43 34.96 25.75 34.73 25.9 34.39L27.83 29.89L31.03 40.29C31.15 40.67 31.48 40.95 31.88 40.99C32.28 41.03 32.66 40.83 32.86 40.48L37.06 32.91L38.15 34.54C38.34 34.82 38.65 34.99 38.98 34.99H41.98C42.53 34.99 42.98 34.54 42.98 33.99C42.98 33.44 42.53 32.99 41.98 32.99H39.52L37.82 30.44C37.63 30.15 37.3 29.98 36.95 29.99C36.6 30 36.29 30.2 36.12 30.5L32.26 37.45L28.95 26.69C28.83 26.29 28.47 26.01 28.05 25.99C27.63 25.97 27.24 26.21 27.08 26.59L24.81 31.89L23.83 30.43C23.64 30.15 23.33 29.98 23 29.98C22.67 29.98 22.35 30.15 22.17 30.43L20.47 32.98H18.01C17.46 32.98 17.01 33.43 17.01 33.98C17.01 34.53 17.46 34.98 18.01 34.98L17.98 35ZM42.98 14C46.84 14 49.98 17.14 49.98 21C49.98 24.86 46.84 28 42.98 28C39.12 28 35.98 24.86 35.98 21C35.98 17.14 39.12 14 42.98 14ZM41.98 20H38.98C38.43 20 37.98 20.45 37.98 21C37.98 21.55 38.43 22 38.98 22H41.98V25C41.98 25.55 42.43 26 42.98 26C43.53 26 43.98 25.55 43.98 25V22H46.98C47.53 22 47.98 21.55 47.98 21C47.98 20.45 47.53 20 46.98 20H43.98V17C43.98 16.45 43.53 16 42.98 16C42.43 16 41.98 16.45 41.98 17V20Z" fill="#6C97EB"/>
</g>
<defs>
<clipPath id="clip0_15_32">
<rect width="40" height="40" fill="white" transform="translate(12 12)"/>
</clipPath>
</defs>
</svg>
