<svg width="32" height="32" viewBox="0 0 32 32" fill="none" xmlns="http://www.w3.org/2000/svg">
<path d="M24.6667 20H7.33333" stroke="#6C97EB" stroke-width="2" stroke-linejoin="round"/>
<path d="M21.3333 5.33331H10.6667" stroke="#6C97EB" stroke-width="2" stroke-linecap="round" stroke-linejoin="round"/>
<path d="M12 6V13.6803C12 14.3168 11.7723 14.9323 11.358 15.4156L4.64199 23.2511C4.22771 23.7344 4 24.3499 4 24.9864V25.3333C4 26.8061 5.19391 28 6.66667 28H25.3333C26.8061 28 28 26.8061 28 25.3333V24.9864C28 24.3499 27.7723 23.7344 27.358 23.2511L20.642 15.4156C20.2277 14.9323 20 14.3168 20 13.6803V6" stroke="#6C97EB" stroke-width="2" stroke-linecap="round" stroke-linejoin="round"/>
<path d="M16 12.0133L16.0133 11.9985" stroke="#6C97EB" stroke-width="2" stroke-linecap="round" stroke-linejoin="round"/>
<path d="M14.6667 2.68004L14.68 2.66522" stroke="#6C97EB" stroke-width="2" stroke-linecap="round" stroke-linejoin="round"/>
</svg>
